<svg id="Capa_1" enable-background="new 0 0 512 512" height="512" viewBox="0 0 512 512" width="512" xmlns="http://www.w3.org/2000/svg"><g><g><path d="m504.5 97.222c4.142 0 7.5-3.357 7.5-7.5v-13.846c0-32.358-26.325-58.684-58.683-58.684h-394.634c-32.358 0-58.683 26.325-58.683 58.684v245.51c0 32.357 26.325 58.683 58.683 58.683h111.57c3.944 0 7.624 2.12 9.601 5.533l56.788 98.044c8.614 14.874 30.094 14.894 38.718 0l56.789-98.044c1.977-3.413 5.655-5.533 9.6-5.533h111.569c32.358 0 58.683-26.325 58.683-58.683v-195.298c0-4.143-3.358-7.5-7.5-7.5s-7.5 3.357-7.5 7.5v195.297c0 24.087-19.596 43.683-43.683 43.683h-111.57c-9.278 0-17.93 4.987-22.58 13.016l-56.789 98.044c-2.843 4.911-9.919 4.902-12.758 0l-56.788-98.045c-4.65-8.027-13.303-13.015-22.58-13.015h-111.57c-24.087 0-43.683-19.596-43.683-43.683v-245.509c0-24.087 19.596-43.684 43.683-43.684h394.634c24.087 0 43.683 19.597 43.683 43.684v13.847c0 4.142 3.358 7.499 7.5 7.499z"/><path d="m299.294 282.477h-139.123c-4.142 0-7.5 3.357-7.5 7.5s3.358 7.5 7.5 7.5h139.123c21.447 0 38.896-17.448 38.896-38.896v-11.555h23.829l31.953 29.896c14.737 13.79 38.81 3.34 38.81-16.836v-122.913c0-20.197-24.09-30.612-38.81-16.837l-31.953 29.896h-23.829v-11.555c0-21.447-17.448-38.896-38.896-38.896h-181.18c-21.447 0-38.896 17.448-38.896 38.896v119.903c0 21.447 17.448 38.896 38.896 38.896h6.936c4.142 0 7.5-3.357 7.5-7.5s-3.358-7.5-7.5-7.5h-6.936c-13.176 0-23.896-10.72-23.896-23.896v-119.902c0-13.176 10.72-23.896 23.896-23.896h181.18c13.176 0 23.896 10.72 23.896 23.896v119.903c0 13.176-10.72 23.896-23.896 23.896zm73.186-121.49 31.739-29.697c5.146-4.815 13.562-1.167 13.562 5.884v122.914c0 7.049-8.414 10.699-13.562 5.883l-31.739-29.697zm-34.29 4.246h19.291v66.794h-19.291z"/></g></g></svg>