<svg id="Capa_1" enable-background="new 0 0 512 512" height="512" viewBox="0 0 512 512" width="512" xmlns="http://www.w3.org/2000/svg" xmlns:xlink="http://www.w3.org/1999/xlink"><linearGradient id="SVGID_1_" gradientUnits="userSpaceOnUse" x1="256" x2="256" y1="496.009" y2="15.991"><stop offset="0" stop-color="#a93aff"/><stop offset="1" stop-color="#ff81ff"/></linearGradient><g><g><path d="m437 15.991h-362c-41.355 0-75 33.645-75 75v390c0 13.318 16.165 20.05 25.606 10.606l85.606-85.606h325.788c41.355 0 75-33.645 75-75v-240c0-41.355-33.645-75-75-75zm45 315c0 24.813-20.187 45-45 45h-332c-3.979 0-7.794 1.581-10.606 4.394l-64.394 64.393v-353.787c0-24.813 20.187-45 45-45h362c24.813 0 45 20.187 45 45zm-81.708-223.416-98.292 49.146v-35.729c0-8.284-6.716-15-15-15h-182c-8.284 0-15 6.716-15 15v180c0 8.284 6.716 15 15 15h182c8.284 0 15-6.716 15-15v-35.729l98.292 49.146c9.954 4.977 21.708-2.27 21.708-13.417v-180c0-11.129-11.735-18.401-21.708-13.417zm-128.292 178.416h-152v-150h152zm120-9.27-90-45v-41.459l90-45z" fill="url(#SVGID_1_)"/></g></g></svg>